<svg xmlns="http://www.w3.org/2000/svg" xmlns:xlink="http://www.w3.org/1999/xlink" xml:space="preserve" fill="#000000" viewBox="0 0 512 512"><path d="M486.4 0H110.933c-14.114 0-25.6 11.486-25.6 25.6v25.6H25.6C11.486 51.2 0 62.686 0 76.8v409.6C0 500.514 11.486 512 25.6 512h324.267c14.114 0 25.6-11.486 25.6-25.6v-384c0-18.825 15.309-34.133 34.133-34.133 18.825 0 34.133 15.309 34.133 34.133v298.667c0 18.825 15.309 34.133 34.133 34.133S512 419.891 512 401.067V25.6C512 11.486 500.514 0 486.4 0zM42.667 102.4a8.53 8.53 0 0 1 8.533-8.533h85.333a8.53 8.53 0 0 1 8.533 8.533v204.8a8.53 8.53 0 0 1-8.533 8.533H51.2a8.53 8.53 0 0 1-8.533-8.533V102.4zm68.266 358.4a8.53 8.53 0 0 1-8.533 8.533H51.2a8.53 8.53 0 0 1-8.533-8.533v-34.133a8.53 8.53 0 0 1 8.533-8.533h51.2a8.53 8.53 0 0 1 8.533 8.533V460.8zm0-76.8a8.53 8.53 0 0 1-8.533 8.533H51.2A8.53 8.53 0 0 1 42.667 384v-34.133a8.53 8.53 0 0 1 8.533-8.533h51.2a8.53 8.53 0 0 1 8.533 8.533V384zm68.267 85.333h-34.133c-4.719 0-8.533-3.823-8.533-8.533s3.814-8.533 8.533-8.533H179.2c4.719 0 8.533 3.823 8.533 8.533s-3.814 8.533-8.533 8.533zm17.067-34.133h-51.2c-4.719 0-8.533-3.823-8.533-8.533s3.814-8.533 8.533-8.533h51.2c4.719 0 8.533 3.823 8.533 8.533s-3.814 8.533-8.533 8.533zM136.533 384a8.53 8.53 0 0 1 8.533-8.533H179.2c4.719 0 8.533 3.823 8.533 8.533s-3.814 8.533-8.533 8.533h-34.133a8.531 8.531 0 0 1-8.534-8.533zm59.734-25.6h-51.2c-4.719 0-8.533-3.823-8.533-8.533s3.814-8.533 8.533-8.533h51.2c4.719 0 8.533 3.823 8.533 8.533s-3.814 8.533-8.533 8.533zM332.8 460.8a8.53 8.53 0 0 1-8.533 8.533h-85.333a8.53 8.53 0 0 1-8.533-8.533V341.333a8.53 8.53 0 0 1 8.533-8.533h85.333a8.53 8.53 0 0 1 8.533 8.533V460.8zm-8.533-162.133H187.733c-4.719 0-8.533-3.823-8.533-8.533s3.814-8.533 8.533-8.533h136.533c4.719 0 8.533 3.823 8.533 8.533s-3.813 8.533-8.532 8.533zm0-42.667H187.733c-4.719 0-8.533-3.823-8.533-8.533s3.814-8.533 8.533-8.533h136.533c4.719 0 8.533 3.823 8.533 8.533S328.986 256 324.267 256zm0-42.667H187.733a8.53 8.53 0 0 1-8.533-8.533 8.53 8.53 0 0 1 8.533-8.533h136.533a8.53 8.53 0 0 1 8.533 8.533 8.53 8.53 0 0 1-8.532 8.533zm0-42.666H187.733a8.53 8.53 0 0 1-8.533-8.533 8.53 8.53 0 0 1 8.533-8.533h136.533a8.53 8.53 0 0 1 8.533 8.533 8.53 8.53 0 0 1-8.532 8.533zm0-42.667H187.733c-4.719 0-8.533-3.823-8.533-8.533s3.814-8.533 8.533-8.533h136.533c4.719 0 8.533 3.823 8.533 8.533S328.986 128 324.267 128zm170.666 273.067c0 9.412-7.654 17.067-17.067 17.067s-17.067-7.654-17.067-17.067V102.4c0-28.237-22.963-51.2-51.2-51.2H102.4V25.6c0-4.702 3.823-8.533 8.533-8.533H486.4c4.71 0 8.533 3.831 8.533 8.533v375.467z"/><path d="M409.6 93.867a8.53 8.53 0 0 0-8.533 8.533v375.467c0 4.71 3.814 8.533 8.533 8.533s8.533-3.823 8.533-8.533V102.4a8.53 8.53 0 0 0-8.533-8.533zM59.733 110.933H128v187.733H59.733zM59.733 435.2h34.133v17.067H59.733zM247.467 349.867h68.267v102.4h-68.267zM59.733 358.4h34.133v17.067H59.733z"/></svg>